<?xml version="1.0" encoding="iso-8859-1"?>
<!-- Generator: Adobe Illustrator 19.0.0, SVG Export Plug-In . SVG Version: 6.00 Build 0)  -->
<svg version="1.1" id="Capa_1" xmlns="http://www.w3.org/2000/svg" xmlns:xlink="http://www.w3.org/1999/xlink" x="0px" y="0px"
	 viewBox="0 0 512 512" style="enable-background:new 0 0 512 512;" xml:space="preserve">
<path style="fill:#63B9DB;" d="M446.5,307.658v92.31c0,25.715-20.837,46.561-46.541,46.561h-84.905v-26.785h86.172
	c10.218,0,18.501-8.287,18.501-18.509V306.39c0-10.222-8.283-18.509-18.501-18.509h-86.172v-26.785h84.905
	C425.663,261.097,446.5,281.943,446.5,307.658z"/>
<path style="fill:#F04348;" d="M220.291,144.225h-30.905V4c0-2.209,1.791-4,4-4h22.905c2.209,0,4,1.791,4,4V144.225z"/>
<rect x="113.83" y="163.63" style="fill:#89CEEA;" width="181.31" height="39.49"/>
<rect x="264.24" y="163.63" style="fill:#63B9DB;" width="30.905" height="39.49"/>
<path style="fill:#CAEEFC;" d="M298.339,512H110.688C85.731,512,65.5,491.769,65.5,466.812V241.953
	c0-24.957,20.231-45.188,45.188-45.188h187.651c24.957,0,45.188,20.231,45.188,45.188v224.859
	C343.527,491.769,323.296,512,298.339,512z"/>
<path style="fill:#89CEEA;" d="M298.349,196.765h-30.892c24.951,0,45.178,20.236,45.178,45.198v224.839
	c0,24.962-20.227,45.198-45.178,45.198h30.892c24.951,0,45.178-20.236,45.178-45.198V241.963
	C343.527,217.001,323.3,196.765,298.349,196.765z"/>
<path style="fill:#FAD87C;" d="M295.147,352.837c0,7.544-13.567,13.205-15.427,20.163c-1.924,7.199,6.937,18.873,3.291,25.176
	c-3.699,6.394-18.273,4.53-23.462,9.719s-3.326,19.763-9.719,23.462c-6.303,3.647-17.977-5.215-25.176-3.291
	c-6.958,1.86-12.619,15.426-20.163,15.426c-7.544,0-13.205-13.567-20.163-15.427c-7.199-1.924-18.873,6.937-25.176,3.291
	c-6.394-3.699-4.53-18.274-9.719-23.462c-5.189-5.189-19.763-3.326-23.462-9.719c-3.647-6.303,5.215-17.977,3.291-25.176
	c-1.86-6.958-15.426-12.619-15.426-20.163s13.567-13.205,15.427-20.163c1.924-7.199-6.937-18.873-3.291-25.176
	c3.699-6.394,18.274-4.53,23.462-9.719c5.189-5.189,3.326-19.763,9.719-23.462c6.303-3.647,17.977,5.215,25.176,3.291
	c6.958-1.86,12.619-15.426,20.163-15.426c7.544,0,13.205,13.567,20.163,15.427c7.199,1.924,18.873-6.937,25.176-3.291
	c6.394,3.699,4.53,18.274,9.719,23.462c5.189,5.189,19.763,3.326,23.462,9.719c3.647,6.303-5.215,17.977-3.291,25.176
	C281.58,339.632,295.147,345.293,295.147,352.837z"/>
<path style="fill:#7FCBCA;" d="M303.857,169.98H105.82c-2.209,0-4-1.791-4-4v-43.509c0-2.209,1.791-4,4-4h198.036
	c2.209,0,4,1.791,4,4v43.509C307.857,168.189,306.066,169.98,303.857,169.98z"/>
<path style="fill:#37B0AE;" d="M303.857,169.98h-26.905v-51.509h26.905c2.209,0,4,1.791,4,4v43.509
	C307.857,168.189,306.066,169.98,303.857,169.98z"/>
<circle style="fill:#F04348;" cx="204.49" cy="352.84" r="49.45"/>
<g>
	<polygon style="fill:#F7F8EB;" points="220.291,58.547 189.386,42.859 189.386,11.506 220.291,27.193 	"/>
	<polygon style="fill:#F7F8EB;" points="220.291,117.308 189.386,101.621 189.386,70.267 220.291,85.955 	"/>
</g>
<g>
	<path style="fill:#228993;" d="M125.032,157.906c-4.143,0-7.5-3.357-7.5-7.5v-11.504c0-4.143,3.357-7.5,7.5-7.5
		c4.143,0,7.5,3.357,7.5,7.5v11.504C132.532,154.549,129.175,157.906,125.032,157.906z"/>
	<path style="fill:#228993;" d="M147.734,157.906c-4.143,0-7.5-3.357-7.5-7.5v-11.504c0-4.143,3.357-7.5,7.5-7.5s7.5,3.357,7.5,7.5
		v11.504C155.234,154.549,151.877,157.906,147.734,157.906z"/>
	<path style="fill:#228993;" d="M170.438,157.906c-4.143,0-7.5-3.357-7.5-7.5v-11.504c0-4.143,3.357-7.5,7.5-7.5s7.5,3.357,7.5,7.5
		v11.504C177.938,154.549,174.58,157.906,170.438,157.906z"/>
	<path style="fill:#228993;" d="M193.14,157.906c-4.143,0-7.5-3.357-7.5-7.5v-11.504c0-4.143,3.357-7.5,7.5-7.5s7.5,3.357,7.5,7.5
		v11.504C200.64,154.549,197.282,157.906,193.14,157.906z"/>
	<path style="fill:#228993;" d="M215.842,157.906c-4.143,0-7.5-3.357-7.5-7.5v-11.504c0-4.143,3.357-7.5,7.5-7.5s7.5,3.357,7.5,7.5
		v11.504C223.342,154.549,219.984,157.906,215.842,157.906z"/>
	<path style="fill:#228993;" d="M238.545,157.906c-4.143,0-7.5-3.357-7.5-7.5v-11.504c0-4.143,3.357-7.5,7.5-7.5s7.5,3.357,7.5,7.5
		v11.504C246.045,154.549,242.688,157.906,238.545,157.906z"/>
	<path style="fill:#228993;" d="M261.247,157.906c-4.143,0-7.5-3.357-7.5-7.5v-11.504c0-4.143,3.357-7.5,7.5-7.5s7.5,3.357,7.5,7.5
		v11.504C268.747,154.549,265.39,157.906,261.247,157.906z"/>
	<path style="fill:#228993;" d="M283.95,157.906c-4.143,0-7.5-3.357-7.5-7.5v-11.504c0-4.143,3.357-7.5,7.5-7.5s7.5,3.357,7.5,7.5
		v11.504C291.45,154.549,288.093,157.906,283.95,157.906z"/>
</g>
<g>
</g>
<g>
</g>
<g>
</g>
<g>
</g>
<g>
</g>
<g>
</g>
<g>
</g>
<g>
</g>
<g>
</g>
<g>
</g>
<g>
</g>
<g>
</g>
<g>
</g>
<g>
</g>
<g>
</g>
</svg>
