<?xml version="1.0" encoding="iso-8859-1"?>
<!-- Generator: Adobe Illustrator 19.0.0, SVG Export Plug-In . SVG Version: 6.00 Build 0)  -->
<svg version="1.1" id="Capa_1" xmlns="http://www.w3.org/2000/svg" xmlns:xlink="http://www.w3.org/1999/xlink" x="0px" y="0px"
	 viewBox="0 0 512 512" style="enable-background:new 0 0 512 512;" xml:space="preserve">
<path style="fill:#EA7786;" d="M306.539,0H205.46c-7.596,0-13.755,6.158-13.755,13.755V45.67c0,7.597,6.158,13.755,13.755,13.755
	h101.079c7.596,0,13.755-6.158,13.755-13.755V13.755C320.294,6.158,314.136,0,306.539,0z"/>
<g>
	<path style="fill:#E35968;" d="M235.627,66.924c-4.143,0-7.5-3.357-7.5-7.5V29.712c0-4.143,3.357-7.5,7.5-7.5s7.5,3.357,7.5,7.5
		v29.712C243.127,63.566,239.77,66.924,235.627,66.924z"/>
	<path style="fill:#E35968;" d="M276.372,66.924c-4.143,0-7.5-3.357-7.5-7.5V29.712c0-4.143,3.357-7.5,7.5-7.5
		c4.142,0,7.5,3.357,7.5,7.5v29.712C283.872,63.566,280.516,66.924,276.372,66.924z"/>
</g>
<path style="fill:#E0F7FF;" d="M294.723,92.601V59.424h-77.446v33.177c0,7.248-4.222,13.832-10.81,16.856l-26.804,12.303
	c-13.81,6.339-22.661,20.141-22.661,35.336v32.716c0,11.423,9.26,20.683,20.683,20.683h156.632c11.423,0,20.683-9.26,20.683-20.683
	v-32.716c0-15.195-8.852-28.997-22.661-35.336l-26.804-12.303C298.947,106.433,294.723,99.849,294.723,92.601z"/>
<path style="fill:#BDECFF;" d="M251.19,75.322h43.533V59.424h-77.446V92.6c0,7.248-4.222,13.833-10.81,16.856l-26.804,12.303
	c-13.809,6.339-22.661,20.141-22.661,35.336v32.716c0,11.423,9.26,20.683,20.683,20.683h75.799
	c-26.036-22.819-22.843-88.819-19.786-119.344C234.597,82.162,242.156,75.322,251.19,75.322z"/>
<g>
	<ellipse style="fill:#EA7786;" cx="203.17" cy="173.22" rx="19.494" ry="15.524"/>
	<ellipse style="fill:#EA7786;" cx="308.83" cy="173.22" rx="19.494" ry="15.524"/>
</g>
<g>
	<path style="fill:#495059;" d="M214.528,165.235c-4.143,0-7.5-3.357-7.5-7.5v-6.884c0-4.143,3.357-7.5,7.5-7.5s7.5,3.357,7.5,7.5
		v6.884C222.028,161.878,218.671,165.235,214.528,165.235z"/>
	<path style="fill:#495059;" d="M297.472,165.235c-4.143,0-7.5-3.357-7.5-7.5v-6.884c0-4.143,3.357-7.5,7.5-7.5s7.5,3.357,7.5,7.5
		v6.884C304.972,161.878,301.615,165.235,297.472,165.235z"/>
	<path style="fill:#495059;" d="M256,170.521c-6.359,0-12.405-2.753-16.588-7.554c-2.722-3.123-2.395-7.86,0.728-10.581
		c3.122-2.721,7.86-2.396,10.581,0.728c1.333,1.529,3.258,2.407,5.279,2.407c2.022,0,3.946-0.878,5.279-2.407
		c2.721-3.124,7.458-3.449,10.581-0.728c3.123,2.721,3.449,7.458,0.727,10.581C268.405,167.769,262.359,170.521,256,170.521z"/>
</g>
<rect x="183.67" y="210.5" style="fill:#C0E5FF;" width="144.65" height="95.62"/>
<path style="fill:#B5E0FF;" d="M183.673,306.112h54.128c-18.013-21.664-18.99-59.002-18.99-78.736h109.515v-16.881H183.673V306.112z
	"/>
<path style="fill:#E0F7FF;" d="M334.316,306.112H177.684c-11.423,0-20.683,9.26-20.683,20.683v166.629
	c0,10.259,8.317,18.576,18.576,18.576h19.898c4.707,0,9.067-2.48,11.473-6.526l4.643-7.808c2.406-4.045,8.262-4.045,10.668,0
	l4.644,7.808c2.406,4.046,6.766,6.526,11.473,6.526h35.247c4.708,0,9.067-2.48,11.473-6.526l4.643-7.808
	c2.406-4.045,8.262-4.045,10.668,0l4.643,7.808c2.406,4.046,6.766,6.526,11.473,6.526h19.898c10.259,0,18.576-8.317,18.576-18.576
	V326.795C354.999,315.372,345.74,306.112,334.316,306.112z"/>
<path style="fill:#BDECFF;" d="M195.475,512c4.707,0,9.067-2.48,11.473-6.526l4.643-7.808c2.406-4.045,8.262-4.045,10.668,0
	l4.643,7.808c2.406,4.046,6.766,6.526,11.473,6.526h35.247c2.518,0,4.925-0.728,6.998-2.007
	c-49.743-31.15-64.716-143.556-66.998-203.881h-35.94c-11.423,0-20.683,9.26-20.683,20.683v166.629
	c0,10.26,8.317,18.576,18.576,18.576H195.475z"/>
<path style="fill:#7FAFE3;" d="M157.001,427.287v15c35.574,0,69.608-7.462,102.521-14.679c32.643-7.157,63.476-13.918,95.476-13.918
	v-15c-33.625,0-66.701,7.252-98.689,14.266C224.177,420.002,190.95,427.287,157.001,427.287z M256.31,369.471
	c-32.133,7.046-65.359,14.331-99.308,14.331v15c35.574,0,69.608-7.463,102.521-14.679C292.167,376.965,323,370.204,355,370.204v-15
	C321.374,355.204,288.298,362.457,256.31,369.471z"/>
<g>
</g>
<g>
</g>
<g>
</g>
<g>
</g>
<g>
</g>
<g>
</g>
<g>
</g>
<g>
</g>
<g>
</g>
<g>
</g>
<g>
</g>
<g>
</g>
<g>
</g>
<g>
</g>
<g>
</g>
</svg>
