<?xml version="1.0" encoding="iso-8859-1"?>
<!-- Generator: Adobe Illustrator 19.0.0, SVG Export Plug-In . SVG Version: 6.00 Build 0)  -->
<svg version="1.1" id="Capa_1" xmlns="http://www.w3.org/2000/svg" xmlns:xlink="http://www.w3.org/1999/xlink" x="0px" y="0px"
	 viewBox="0 0 512 512" style="enable-background:new 0 0 512 512;" xml:space="preserve">
<polygon style="fill:#FFD200;" points="256,438.716 444.19,438.716 496.988,343.339 235.984,323.323 "/>
<polygon style="fill:#FFF9BF;" points="15.012,343.339 67.81,438.716 256,438.716 256,323.323 "/>
<polygon style="fill:#FFD200;" points="256,247.962 235.984,295.597 256,343.339 496.988,343.339 444.19,247.962 "/>
<polygon style="fill:#FFF9BF;" points="256,247.962 67.81,247.962 15.012,343.339 256,343.339 "/>
<g>
	<path style="fill:#E0E3E6;" d="M159,212.284h-30c0-15.238,4.259-23.46,7.681-30.067c2.693-5.2,4.319-8.339,4.319-16.269
		s-1.626-11.069-4.319-16.269c-3.422-6.606-7.681-14.829-7.681-30.066s4.259-23.458,7.681-30.064
		C139.374,84.35,141,81.212,141,73.284h30c0,15.237-4.259,23.458-7.681,30.064c-2.693,5.199-4.319,8.337-4.319,16.265
		c0,7.93,1.626,11.068,4.319,16.269c3.422,6.606,7.681,14.829,7.681,30.067s-4.259,23.46-7.681,30.066
		C160.626,201.215,159,204.354,159,212.284z"/>
	<path style="fill:#E0E3E6;" d="M229.667,212.284h-30c0-15.238,4.259-23.46,7.681-30.067c2.693-5.2,4.319-8.339,4.319-16.269
		s-1.626-11.069-4.319-16.269c-3.422-6.606-7.681-14.829-7.681-30.066s4.259-23.458,7.681-30.064
		c2.693-5.199,4.319-8.337,4.319-16.265h30c0,15.237-4.259,23.458-7.681,30.064c-2.693,5.199-4.319,8.337-4.319,16.265
		c0,7.93,1.626,11.068,4.319,16.269c3.422,6.606,7.681,14.829,7.681,30.067s-4.259,23.46-7.681,30.066
		C231.292,201.215,229.667,204.354,229.667,212.284z"/>
</g>
<g>
	<path style="fill:#C7C5CA;" d="M300.333,212.284h-30c0-15.238,4.259-23.46,7.681-30.067c2.693-5.2,4.319-8.339,4.319-16.269
		s-1.626-11.069-4.319-16.269c-3.422-6.606-7.681-14.829-7.681-30.066s4.259-23.458,7.681-30.064
		c2.693-5.199,4.319-8.337,4.319-16.265h30c0,15.237-4.259,23.458-7.681,30.064c-2.693,5.199-4.319,8.337-4.319,16.265
		c0,7.93,1.626,11.068,4.319,16.269c3.422,6.606,7.681,14.829,7.681,30.067s-4.259,23.46-7.681,30.066
		C301.959,201.215,300.333,204.354,300.333,212.284z"/>
	<path style="fill:#C7C5CA;" d="M371,212.284h-30c0-15.238,4.259-23.46,7.681-30.067c2.693-5.2,4.319-8.339,4.319-16.269
		s-1.626-11.069-4.319-16.269c-3.422-6.606-7.681-14.829-7.681-30.066s4.259-23.458,7.681-30.064
		C351.374,84.35,353,81.212,353,73.284h30c0,15.237-4.259,23.458-7.681,30.064c-2.693,5.199-4.319,8.337-4.319,16.265
		c0,7.93,1.626,11.068,4.319,16.269c3.422,6.606,7.681,14.829,7.681,30.067s-4.259,23.46-7.681,30.066
		C372.626,201.215,371,204.354,371,212.284z"/>
</g>
<polygon style="fill:#FF9600;" points="512,328.339 256,328.339 235.984,343.339 235.984,343.339 235.984,343.339 256,384.72 
	313.01,384.72 319.329,358.339 512,358.339 "/>
<polygon style="fill:#FFD200;" points="0,328.339 0,358.339 192.671,358.339 198.99,384.72 256,384.72 256,358.339 256,343.339 
	256,328.339 "/>
<g>
</g>
<g>
</g>
<g>
</g>
<g>
</g>
<g>
</g>
<g>
</g>
<g>
</g>
<g>
</g>
<g>
</g>
<g>
</g>
<g>
</g>
<g>
</g>
<g>
</g>
<g>
</g>
<g>
</g>
</svg>
