<?xml version="1.0" encoding="iso-8859-1"?>
<!-- Generator: Adobe Illustrator 21.0.0, SVG Export Plug-In . SVG Version: 6.00 Build 0)  -->
<svg version="1.1" id="Capa_1" xmlns="http://www.w3.org/2000/svg" xmlns:xlink="http://www.w3.org/1999/xlink" x="0px" y="0px"
	 viewBox="0 0 512 512" style="enable-background:new 0 0 512 512;" xml:space="preserve">
<path style="fill:#D0CFD1;" d="M168.284,512c-4.143,0-7.5-3.358-7.5-7.5V7.5c0-4.142,3.357-7.5,7.5-7.5s7.5,3.358,7.5,7.5v497
	C175.784,508.642,172.427,512,168.284,512z"/>
<path style="fill:#F9E075;" d="M168.284,90.331c-18.195,0-32.999,14.803-32.999,32.998c0,18.196,14.804,32.999,32.999,32.999
	s32.998-14.803,32.998-32.999C201.282,105.134,186.48,90.331,168.284,90.331z"/>
<path style="fill:#F9CD45;" d="M168.284,90.331c-4.043,0-7.917,0.734-11.5,2.071c12.541,4.679,21.498,16.775,21.498,30.927
	c0,14.153-8.957,26.249-21.498,30.928c3.583,1.337,7.457,2.071,11.5,2.071c18.195,0,32.998-14.803,32.998-32.999
	C201.282,105.134,186.48,90.331,168.284,90.331z"/>
<path style="fill:#00BF9E;" d="M205.621,88.836c-0.654,0-1.32-0.086-1.982-0.268c-23.129-6.327-47.58-6.327-70.709,0
	c-3.999,1.093-8.12-1.261-9.213-5.255l-7.213-26.365c-0.524-1.918-0.266-3.967,0.72-5.695c0.985-1.728,2.617-2.994,4.535-3.518
	c30.438-8.326,62.614-8.326,93.05,0c1.919,0.525,3.551,1.79,4.536,3.518s1.244,3.776,0.72,5.695l-7.213,26.365
	C211.939,86.646,208.918,88.836,205.621,88.836z"/>
<path style="fill:#00A983;" d="M219.345,51.253c-0.985-1.728-2.617-2.994-4.536-3.518c-18.946-5.183-38.568-7.136-58.024-5.866
	c11.798,0.77,23.535,2.723,35.024,5.866c1.919,0.525,3.551,1.79,4.536,3.518s1.244,3.776,0.72,5.695l-7.213,26.365
	c-0.212,0.775-0.548,1.481-0.965,2.119c4.959,0.771,9.886,1.805,14.753,3.136c0.662,0.181,1.328,0.268,1.982,0.268
	c3.297,0,6.318-2.19,7.23-5.523l7.213-26.365C220.589,55.03,220.33,52.981,219.345,51.253z"/>
<path style="fill:#FF9F4D;" d="M187.591,170.167h-38.614c-10.95,0-19.859,8.909-19.859,19.859v38.615
	c0,10.951,8.909,19.859,19.859,19.859h38.614c10.95,0,19.859-8.909,19.859-19.859v-38.615
	C207.45,179.076,198.541,170.167,187.591,170.167z"/>
<path style="fill:#F9E075;" d="M168.284,312.998c-18.195,0-32.999,14.803-32.999,32.999c0,18.196,14.804,32.999,32.999,32.999
	s32.998-14.803,32.998-32.999S186.48,312.998,168.284,312.998z"/>
<path style="fill:#00BF9E;" d="M219.345,273.92c-0.985-1.728-2.617-2.994-4.536-3.518c-30.436-8.326-62.612-8.326-93.05,0
	c-1.918,0.525-3.55,1.79-4.535,3.518s-1.244,3.776-0.72,5.695l7.213,26.365c1.094,3.996,5.223,6.348,9.213,5.255
	c23.129-6.327,47.58-6.327,70.709,0c0.662,0.181,1.328,0.268,1.983,0.268c3.296,0,6.317-2.19,7.229-5.523l7.213-26.365
	C220.589,277.696,220.33,275.647,219.345,273.92z"/>
<path style="fill:#FF9F4D;" d="M187.591,392.833h-38.614c-10.95,0-19.859,8.909-19.859,19.859v38.615
	c0,10.951,8.909,19.859,19.859,19.859h38.614c10.95,0,19.859-8.909,19.859-19.859v-38.615
	C207.45,401.742,198.541,392.833,187.591,392.833z"/>
<path style="fill:#FB900D;" d="M187.591,170.167h-23c10.95,0,19.859,8.909,19.859,19.859v38.615
	c0,10.951-8.909,19.859-19.859,19.859h23c10.95,0,19.859-8.909,19.859-19.859v-38.615
	C207.45,179.076,198.541,170.167,187.591,170.167z"/>
<path style="fill:#F9CD45;" d="M168.284,312.998c-4.043,0-7.917,0.734-11.5,2.071c12.541,4.679,21.498,16.775,21.498,30.927
	c0,14.153-8.957,26.249-21.498,30.928c3.583,1.337,7.457,2.071,11.5,2.071c18.195,0,32.998-14.803,32.998-32.999
	C201.282,327.801,186.48,312.998,168.284,312.998z"/>
<path style="fill:#00A983;" d="M219.345,273.92c-0.985-1.728-2.617-2.994-4.536-3.518c-18.946-5.183-38.568-7.136-58.024-5.866
	c11.798,0.77,23.535,2.723,35.024,5.866c1.919,0.525,3.551,1.79,4.536,3.518s1.244,3.776,0.72,5.695l-7.213,26.365
	c-0.212,0.775-0.548,1.481-0.965,2.119c4.959,0.771,9.886,1.805,14.753,3.136c0.662,0.181,1.328,0.268,1.983,0.268
	c3.296,0,6.317-2.19,7.229-5.523l7.213-26.365C220.589,277.696,220.33,275.647,219.345,273.92z"/>
<path style="fill:#FB900D;" d="M187.591,392.833h-23c10.95,0,19.859,8.909,19.859,19.859v38.615
	c0,10.951-8.909,19.859-19.859,19.859h23c10.95,0,19.859-8.909,19.859-19.859v-38.615
	C207.45,401.742,198.541,392.833,187.591,392.833z"/>
<path style="fill:#D0CFD1;" d="M343.716,512c-4.142,0-7.5-3.358-7.5-7.5V7.5c0-4.142,3.358-7.5,7.5-7.5c4.143,0,7.5,3.358,7.5,7.5
	v497C351.216,508.642,347.858,512,343.716,512z"/>
<path style="fill:#F9E075;" d="M343.716,90.331c-18.195,0-32.999,14.803-32.999,32.998c0,18.196,14.804,32.999,32.999,32.999
	s32.998-14.803,32.998-32.999C376.714,105.134,361.911,90.331,343.716,90.331z"/>
<path style="fill:#F9CD45;" d="M343.716,90.331c-4.043,0-7.917,0.734-11.5,2.071c12.541,4.679,21.498,16.775,21.498,30.927
	c0,14.153-8.957,26.249-21.498,30.928c3.583,1.337,7.457,2.071,11.5,2.071c18.195,0,32.998-14.803,32.998-32.999
	C376.714,105.134,361.911,90.331,343.716,90.331z"/>
<path style="fill:#00BF9E;" d="M381.053,88.836c-0.654,0-1.32-0.086-1.982-0.268c-23.129-6.327-47.58-6.327-70.709,0
	c-3.999,1.093-8.12-1.261-9.213-5.255l-7.213-26.365c-0.525-1.918-0.266-3.967,0.72-5.695c0.985-1.728,2.617-2.994,4.535-3.518
	c30.438-8.326,62.614-8.326,93.05,0c1.919,0.525,3.551,1.79,4.536,3.518c0.985,1.728,1.244,3.776,0.72,5.695l-7.213,26.365
	C387.371,86.646,384.35,88.836,381.053,88.836z"/>
<path style="fill:#00A983;" d="M394.776,51.253c-0.985-1.728-2.617-2.994-4.536-3.518c-18.947-5.183-38.568-7.136-58.024-5.866
	c11.798,0.77,23.535,2.723,35.024,5.866c1.919,0.525,3.551,1.79,4.536,3.518c0.985,1.728,1.244,3.776,0.72,5.695l-7.213,26.365
	c-0.212,0.775-0.548,1.481-0.965,2.119c4.959,0.771,9.886,1.805,14.752,3.136c0.662,0.181,1.328,0.268,1.982,0.268
	c3.297,0,6.318-2.19,7.23-5.523l7.213-26.365C396.021,55.03,395.762,52.981,394.776,51.253z"/>
<path style="fill:#FF9F4D;" d="M363.022,170.167h-38.614c-10.95,0-19.859,8.909-19.859,19.859v38.615
	c0,10.951,8.909,19.859,19.859,19.859h38.614c10.95,0,19.859-8.909,19.859-19.859v-38.615
	C382.882,179.076,373.973,170.167,363.022,170.167z"/>
<path style="fill:#F9E075;" d="M343.716,312.998c-18.195,0-32.999,14.803-32.999,32.999c0,18.196,14.804,32.999,32.999,32.999
	s32.998-14.803,32.998-32.999S361.911,312.998,343.716,312.998z"/>
<path style="fill:#00BF9E;" d="M394.776,273.92c-0.985-1.728-2.617-2.994-4.536-3.518c-30.436-8.326-62.612-8.326-93.05,0
	c-1.918,0.525-3.55,1.79-4.535,3.518c-0.985,1.728-1.244,3.776-0.72,5.695l7.213,26.365c1.094,3.996,5.223,6.348,9.213,5.255
	c23.129-6.327,47.58-6.327,70.709,0c0.662,0.181,1.328,0.268,1.983,0.268c3.296,0,6.317-2.19,7.229-5.523l7.213-26.365
	C396.021,277.696,395.762,275.647,394.776,273.92z"/>
<path style="fill:#FF9F4D;" d="M363.022,392.833h-38.614c-10.95,0-19.859,8.909-19.859,19.859v38.615
	c0,10.951,8.909,19.859,19.859,19.859h38.614c10.95,0,19.859-8.909,19.859-19.859v-38.615
	C382.882,401.742,373.973,392.833,363.022,392.833z"/>
<path style="fill:#FB900D;" d="M363.022,170.167h-23c10.95,0,19.859,8.909,19.859,19.859v38.615
	c0,10.951-8.909,19.859-19.859,19.859h23c10.95,0,19.859-8.909,19.859-19.859v-38.615
	C382.882,179.076,373.973,170.167,363.022,170.167z"/>
<path style="fill:#F9CD45;" d="M343.716,312.998c-4.043,0-7.917,0.734-11.5,2.071c12.541,4.679,21.498,16.775,21.498,30.927
	c0,14.153-8.957,26.249-21.498,30.928c3.583,1.337,7.457,2.071,11.5,2.071c18.195,0,32.998-14.803,32.998-32.999
	C376.714,327.801,361.911,312.998,343.716,312.998z"/>
<path style="fill:#00A983;" d="M394.776,273.92c-0.985-1.728-2.617-2.994-4.536-3.518c-18.947-5.183-38.568-7.136-58.024-5.866
	c11.798,0.77,23.535,2.723,35.024,5.866c1.919,0.525,3.551,1.79,4.536,3.518c0.985,1.728,1.244,3.776,0.72,5.695l-7.213,26.365
	c-0.212,0.775-0.548,1.481-0.965,2.119c4.959,0.771,9.886,1.805,14.752,3.136c0.662,0.181,1.328,0.268,1.983,0.268
	c3.296,0,6.317-2.19,7.229-5.523l7.213-26.365C396.021,277.696,395.762,275.647,394.776,273.92z"/>
<path style="fill:#FB900D;" d="M363.022,392.833h-23c10.95,0,19.859,8.909,19.859,19.859v38.615
	c0,10.951-8.909,19.859-19.859,19.859h23c10.95,0,19.859-8.909,19.859-19.859v-38.615
	C382.882,401.742,373.973,392.833,363.022,392.833z"/>
<g>
</g>
<g>
</g>
<g>
</g>
<g>
</g>
<g>
</g>
<g>
</g>
<g>
</g>
<g>
</g>
<g>
</g>
<g>
</g>
<g>
</g>
<g>
</g>
<g>
</g>
<g>
</g>
<g>
</g>
</svg>
