<?xml version="1.0" encoding="iso-8859-1"?>
<!-- Generator: Adobe Illustrator 19.0.0, SVG Export Plug-In . SVG Version: 6.00 Build 0)  -->
<svg version="1.1" id="Layer_1" xmlns="http://www.w3.org/2000/svg" xmlns:xlink="http://www.w3.org/1999/xlink" x="0px" y="0px"
	 viewBox="0 0 512 512" style="enable-background:new 0 0 512 512;" xml:space="preserve">
<polygon style="fill:#F95428;" points="451.47,251.149 451.47,360.272 404.382,360.272 295.996,360.272 62.909,360.272 
	62.909,251.149 "/>
<polygon style="fill:#9AD14B;" points="451.47,119.127 451.47,225.62 233.909,225.62 125.522,225.62 62.909,225.62 62.909,119.127 
	"/>
<polygon style="fill:#E54728;" points="99.165,272.62 99.165,338.801 94.772,338.801 84.657,338.801 62.909,338.801 62.909,272.62 
	"/>
<polygon style="fill:#8BB73D;" points="99.165,135.905 99.165,205.59 94.772,205.59 84.657,205.59 62.909,205.59 62.909,135.905 "/>
<path style="fill:#F7B239;" d="M455.033,416.036c10.937,0,19.811,8.86,19.811,19.797v24.149c0,28.723-23.294,52.018-52.031,52.018
	H89.187c-28.737,0-52.018-23.294-52.018-52.018v-24.149c0-10.937,8.86-19.797,19.797-19.797h3.562L251.625,371.6l199.845,44.437
	H455.033z"/>
<path style="fill:#E09B2D;" d="M157.233,459.982v-24.149c0-10.937,8.86-19.797,19.797-19.797H60.53h-3.562
	c-10.937,0-19.797,8.86-19.797,19.797v24.149C37.17,488.706,60.451,512,89.187,512h120.064
	C180.515,512,157.233,488.706,157.233,459.982z"/>
<path style="fill:#F7B239;" d="M474.844,129.564c0,10.937-8.873,19.797-19.811,19.797h-3.562H62.909h-5.942
	c-5.469,0-10.425-2.222-14-5.797c-3.576-3.576-5.797-8.532-5.797-14C37.17,58.012,95.169,0,166.721,0h178.558
	c35.77,0,68.161,14.5,91.613,37.952C460.344,61.404,474.844,93.795,474.844,129.564z"/>
<path style="fill:#E09B2D;" d="M137.954,129.564C137.954,58.012,195.953,0,267.505,0H166.721C95.169,0,37.17,58.012,37.17,129.564
	c0,5.469,2.222,10.425,5.797,14c3.576,3.576,8.532,5.797,14,5.797h5.942h94.843c-5.469,0-10.425-2.222-14-5.797
	C140.176,139.989,137.954,135.033,137.954,129.564z"/>
<path style="fill:#B27214;" d="M451.47,328.722c12.055,0,22.966,4.89,30.866,12.791c7.901,7.901,12.791,18.812,12.791,30.866
	c0,24.109-19.548,43.657-43.657,43.657H60.53c-12.055,0-22.966-4.89-30.866-12.791s-12.791-18.812-12.791-30.866
	c0-24.109,19.548-43.657,43.657-43.657h2.379h233.087h108.387H451.47z"/>
<polygon style="fill:#F4DE3B;" points="404.382,328.722 351.655,384.394 295.996,328.722 "/>
<path style="fill:#B27214;" d="M451.47,195.385c12.055,0,22.966,4.89,30.866,12.791c7.901,7.901,12.791,18.812,12.791,30.866
	c0,24.109-19.548,43.657-43.657,43.657H62.909H60.53c-12.055,0-22.966-4.89-30.866-12.791c-7.901-7.901-12.791-18.812-12.791-30.866
	c0-24.109,19.548-43.657,43.657-43.657h2.379h171H451.47z"/>
<polygon style="fill:#F4DE3B;" points="233.909,195.385 181.194,251.057 125.522,195.385 "/>
<g>
	<path style="fill:#995E10;" d="M110.207,372.379c0-24.109,19.548-43.657,43.657-43.657H62.909H60.53
		c-24.109,0-43.657,19.548-43.657,43.657c0,12.055,4.89,22.966,12.791,30.866s18.812,12.791,30.866,12.791h93.335
		c-12.055,0-22.966-4.89-30.866-12.791S110.207,384.434,110.207,372.379z"/>
	<path style="fill:#995E10;" d="M110.207,239.042c0-15.983,8.596-29.954,21.41-37.561l-6.096-6.096H62.909H60.53
		c-24.109,0-43.657,19.548-43.657,43.657c0,12.055,4.89,22.966,12.791,30.866c7.901,7.901,18.812,12.791,30.866,12.791h2.379h90.955
		c-12.055,0-22.966-4.89-30.866-12.791C115.097,262.008,110.207,251.097,110.207,239.042z"/>
</g>
<g>
	<circle style="fill:#F4DE3B;" cx="159.353" cy="40.252" r="9.859"/>
	<circle style="fill:#F4DE3B;" cx="352.647" cy="40.252" r="9.859"/>
	<circle style="fill:#F4DE3B;" cx="223.793" cy="40.252" r="9.859"/>
	<circle style="fill:#F4DE3B;" cx="288.22" cy="40.252" r="9.859"/>
</g>
<g>
</g>
<g>
</g>
<g>
</g>
<g>
</g>
<g>
</g>
<g>
</g>
<g>
</g>
<g>
</g>
<g>
</g>
<g>
</g>
<g>
</g>
<g>
</g>
<g>
</g>
<g>
</g>
<g>
</g>
</svg>
