<?xml version="1.0" encoding="iso-8859-1"?>
<!-- Generator: Adobe Illustrator 19.0.0, SVG Export Plug-In . SVG Version: 6.00 Build 0)  -->
<svg version="1.1" id="Capa_1" xmlns="http://www.w3.org/2000/svg" xmlns:xlink="http://www.w3.org/1999/xlink" x="0px" y="0px"
	 viewBox="0 0 512 512" style="enable-background:new 0 0 512 512;" xml:space="preserve">
<path style="fill:#E0F7FF;" d="M371.577,350.968l-22.288-61.225c-5.732-15.745-9.76-32.058-12.017-48.661l0,0
	c-1.27-9.339-3.538-18.514-6.767-27.369l-6.301-17.279c-8.072-22.135-27.81-37.926-51.177-40.943l0,0
	c-17.726-2.289-32.695-14.273-38.808-31.068l-29.072-79.875l-69.776,25.397l29.072,79.874c6.113,16.795,2.349,35.598-9.759,48.745
	l0,0c-15.961,17.332-20.931,42.115-12.886,64.26l6.28,17.287c3.218,8.858,7.378,17.346,12.408,25.316l0,0
	c8.943,14.169,16.343,29.256,22.073,45.001l22.281,61.228c6.345,17.435,10.893,35.471,13.574,53.83v0.001
	c1.31,8.972,3.544,17.784,6.665,26.296l0,0c5.849,15.952,23.506,24.16,39.472,18.349l124.585-45.345
	c15.966-5.811,24.216-23.448,18.443-39.428l0,0c-3.081-8.528-7.034-16.714-11.797-24.429l0,0
	C386.034,385.143,377.924,368.402,371.577,350.968z"/>
<path style="fill:#BDECFF;" d="M409.292,438.543C216.53,488.763,210.011,326.44,209.125,263.604
	c-0.406-28.775-7.245-76.451-44.283-178.214c20.184-7.346,37.221-13.547,48.715-17.731l-8.412-23.111l-69.776,25.397l29.072,79.874
	c6.113,16.795,2.349,35.598-9.759,48.745l0,0c-15.961,17.332-20.931,42.115-12.886,64.26l6.28,17.287
	c3.218,8.858,7.378,17.346,12.408,25.316l0,0c8.943,14.169,16.343,29.256,22.073,45.001l22.281,61.228
	c6.345,17.435,10.893,35.471,13.574,53.83v0.001c1.31,8.972,3.544,17.784,6.665,26.296l0,0c5.849,15.952,23.506,24.16,39.472,18.348
	l124.585-45.345C400.742,460.563,408.264,450.087,409.292,438.543z"/>
<path style="fill:#C0E5FF;" d="M225.078,491.783L225.078,491.783c5.85,15.952,23.506,24.16,39.472,18.349l124.585-45.345
	c15.966-5.811,24.216-23.448,18.443-39.428c-1.53-4.236-3.277-8.388-5.23-12.439l-181.259,65.973
	C222.197,483.252,223.527,487.555,225.078,491.783z"/>
<path style="fill:#B5E0FF;" d="M409.292,438.543L409.292,438.543c-39.29,10.236-70.84,11.64-96.184,6.858l-92.019,33.492
	c1.108,4.359,2.439,8.662,3.989,12.891l0,0c5.849,15.952,23.506,24.16,39.472,18.349l124.585-45.345
	C400.742,460.563,408.264,450.087,409.292,438.543z"/>
<path style="fill:#C0E5FF;" d="M212.885,41.731l-85.255,31.03c-8.044,2.928-16.938-1.22-19.865-9.263l-4.245-11.664
	c-2.928-8.044,1.22-16.938,9.263-19.865l85.255-31.03c8.044-2.928,16.938,1.22,19.865,9.263l4.245,11.664
	C225.076,29.909,220.929,38.803,212.885,41.731z"/>
<path style="fill:#FFFFFF;" d="M297.556,241.267c-4.122,0-7.475-3.329-7.499-7.457c-0.057-9.837-3.786-18.278-11.084-25.086
	c-9.658-9.01-22.871-12.442-26.267-12.227c-4.141,0.257-7.699-2.875-7.962-7.008c-0.263-4.134,2.874-7.698,7.008-7.962
	c7.568-0.473,24.71,4.341,37.453,16.228c10.29,9.599,15.772,22.037,15.853,35.967c0.023,4.142-3.314,7.52-7.457,7.544
	C297.585,241.267,297.57,241.267,297.556,241.267z"/>
<g>
	
		<ellipse transform="matrix(-0.342 -0.9397 0.9397 -0.342 -48.8009 729.2442)" style="fill:#EA7786;" cx="230.917" cy="381.708" rx="15.858" ry="19.913"/>
	
		<ellipse transform="matrix(0.342 0.9397 -0.9397 0.342 542.6628 -85.4462)" style="fill:#EA7786;" cx="332.345" cy="344.77" rx="15.858" ry="19.913"/>
</g>
<g>
	<path style="fill:#495059;" d="M236.412,370.362c-3.063,0-5.939-1.891-7.048-4.936l-2.405-6.608
		c-1.417-3.892,0.59-8.196,4.482-9.613c3.891-1.418,8.196,0.59,9.613,4.482l2.405,6.608c1.416,3.893-0.59,8.196-4.482,9.613
		C238.13,370.216,237.263,370.362,236.412,370.362z"/>
	<path style="fill:#495059;" d="M316.027,341.385c-3.064,0-5.94-1.891-7.049-4.936l-2.405-6.608
		c-1.417-3.893,0.59-8.196,4.482-9.613c3.894-1.418,8.197,0.59,9.613,4.482l2.405,6.608c1.417,3.892-0.59,8.196-4.482,9.613
		C317.745,341.239,316.879,341.385,316.027,341.385z"/>
	<path style="fill:#495059;" d="M273.008,361.838c-3.736,0-7.458-0.939-10.806-2.789c-3.625-2.003-4.939-6.567-2.936-10.192
		c2.004-3.625,6.564-4.94,10.192-2.937c1.855,1.026,4.058,1.201,6.042,0.478c1.984-0.722,3.56-2.271,4.322-4.25
		c1.488-3.865,5.824-5.792,9.695-4.302c3.864,1.49,5.791,5.831,4.301,9.695c-2.322,6.026-7.129,10.747-13.188,12.952
		C278.16,361.393,275.58,361.838,273.008,361.838z"/>
</g>
<path style="fill:#B5E0FF;" d="M184.338,52.121c-25.512-1.704-32.668-20.878-26.994-36.372l-44.562,16.219
	c-8.044,2.928-12.191,11.822-9.263,19.866l4.245,11.664c2.928,8.044,11.822,12.191,19.866,9.263L184.338,52.121z"/>
<g>
</g>
<g>
</g>
<g>
</g>
<g>
</g>
<g>
</g>
<g>
</g>
<g>
</g>
<g>
</g>
<g>
</g>
<g>
</g>
<g>
</g>
<g>
</g>
<g>
</g>
<g>
</g>
<g>
</g>
</svg>
