<?xml version="1.0" encoding="iso-8859-1"?>
<!-- Generator: Adobe Illustrator 19.0.0, SVG Export Plug-In . SVG Version: 6.00 Build 0)  -->
<svg version="1.1" id="Capa_1" xmlns="http://www.w3.org/2000/svg" xmlns:xlink="http://www.w3.org/1999/xlink" x="0px" y="0px"
	 viewBox="0 0 512.158 512.158" style="enable-background:new 0 0 512.158 512.158;" xml:space="preserve">
<path style="fill:#FFC107;" d="M266.667,58.746c-121.408,0-224,73.28-224,160c0,5.891,4.776,10.667,10.667,10.667H480
	c5.891,0,10.667-4.776,10.667-10.667C490.667,132.026,388.075,58.746,266.667,58.746z"/>
<path style="fill:#E53935;" d="M499.2,266.17c-6.741-16.043-48.789-38.784-232.533-38.784c-99.797,0-218.176,6.4-230.699,36.267
	c-22.457,27.127-18.671,67.323,8.457,89.78c11.501,9.521,25.978,14.704,40.909,14.646H448c35.346,0,64-28.654,64-64
	C511.968,290.387,507.474,277.079,499.2,266.17z"/>
<path style="fill:#4CAF50;" d="M482.133,208.314c-0.701-0.153-1.416-0.231-2.133-0.235H53.333
	C23.946,208.242,0.163,232.025,0,261.412c0.051,7.689,4.685,14.606,11.776,17.579c5.58,2.432,11.621,3.625,17.707,3.499
	c15.232,0,31.509-5.525,34.133-17.557c10.09-4.325,21.035-6.288,32-5.739c3.811,0.022,7.586,0.745,11.136,2.133
	c0.295,9.529,6.361,17.918,15.317,21.184c7.844,3.162,16.248,4.7,24.704,4.523c21.824,0,45.312-8.043,44.8-24.064
	c7.962-4.727,17.257-6.706,26.453-5.632c5.819-0.233,11.587,1.179,16.64,4.075c0,16,16.555,26.325,42.155,26.325
	c25.6,0,43.179-10.667,42.987-25.6c5.962-3.969,13.12-5.742,20.245-5.013c7.771-0.41,15.526,1.053,22.613,4.267
	c0,4.693,2.133,20.245,28.885,24c19.904,2.859,50.581-1.899,56.043-21.077c0.555-1.984,1.109-2.816,1.088-2.965
	c7.377,2.215,14.303,5.717,20.459,10.347c12.053,7.787,23.467,15.125,33.664,9.536c6.599-4.308,10.167-11.999,9.195-19.819
	C512,215.055,483.392,208.548,482.133,208.314z"/>
<g>
	<path style="fill:#FB8C00;" d="M234.667,133.412c-5.891,0.011-10.675-4.757-10.686-10.648c-0.005-2.84,1.123-5.565,3.134-7.571
		l10.667-10.667c4.092-4.237,10.845-4.355,15.083-0.262c4.237,4.092,4.355,10.845,0.262,15.083
		c-0.086,0.089-0.173,0.176-0.262,0.262l-10.667,10.667C240.202,132.278,237.493,133.406,234.667,133.412z"/>
	<path style="fill:#FB8C00;" d="M330.667,144.079c-2.831,0.005-5.548-1.115-7.552-3.115l-10.667-10.667
		c-4.092-4.237-3.975-10.99,0.262-15.083c4.134-3.992,10.687-3.992,14.82,0l10.667,10.667c4.171,4.16,4.179,10.914,0.019,15.085
		c-2.006,2.011-4.731,3.139-7.571,3.134L330.667,144.079z"/>
	<path style="fill:#FB8C00;" d="M416,186.746c-2.831,0.005-5.548-1.115-7.552-3.115l-10.667-10.667
		c-4.093-4.237-3.975-10.99,0.262-15.083c4.134-3.993,10.687-3.993,14.821,0l10.667,10.667c4.171,4.16,4.179,10.914,0.019,15.085
		c-2.006,2.011-4.731,3.139-7.571,3.134L416,186.746z"/>
	<path style="fill:#FB8C00;" d="M266.667,186.746c-5.891,0.011-10.675-4.757-10.686-10.648c-0.005-2.84,1.123-5.565,3.134-7.571
		l10.667-10.667c4.092-4.237,10.845-4.355,15.083-0.262s4.355,10.845,0.262,15.083c-0.086,0.089-0.173,0.176-0.262,0.262
		l-10.667,10.667C272.202,185.611,269.493,186.739,266.667,186.746z"/>
	<path style="fill:#FB8C00;" d="M138.667,165.412c-5.891-0.036-10.637-4.841-10.601-10.732c0.017-2.769,1.11-5.424,3.049-7.402
		l10.667-10.667c4.237-4.093,10.99-3.975,15.083,0.262c3.992,4.134,3.992,10.687,0,14.821l-10.667,10.667
		C144.188,164.332,141.481,165.429,138.667,165.412z"/>
</g>
<path style="fill:#FFC107;" d="M480,346.746H53.333c-5.891,0-10.667,4.776-10.667,10.667c0,53.019,42.981,96,96,96h256
	c53.019,0,96-42.981,96-96C490.667,351.521,485.891,346.746,480,346.746z"/>
<path style="fill:#FFEB3B;" d="M266.667,346.746H117.333c-5.891,0-10.667,4.776-10.666,10.667c0,1.659,0.387,3.295,1.13,4.778
	l21.333,42.667c1.808,3.609,5.499,5.888,9.536,5.888c1.146-0.003,2.284-0.19,3.371-0.555l128-42.667
	c5.585-1.875,8.592-7.922,6.717-13.507C275.299,349.681,271.241,346.756,266.667,346.746z"/>
<g>
</g>
<g>
</g>
<g>
</g>
<g>
</g>
<g>
</g>
<g>
</g>
<g>
</g>
<g>
</g>
<g>
</g>
<g>
</g>
<g>
</g>
<g>
</g>
<g>
</g>
<g>
</g>
<g>
</g>
</svg>
