<?xml version="1.0" encoding="iso-8859-1"?>
<!-- Generator: Adobe Illustrator 19.0.0, SVG Export Plug-In . SVG Version: 6.00 Build 0)  -->
<svg version="1.1" id="Capa_1" xmlns="http://www.w3.org/2000/svg" xmlns:xlink="http://www.w3.org/1999/xlink" x="0px" y="0px"
	 viewBox="0 0 512 512" style="enable-background:new 0 0 512 512;" xml:space="preserve">
<path style="fill:#296B94;" d="M102.128,83.978l207.959-10.003c6.422,20.294,25.152,34.168,46.755,34.168
	c28.357,0,53.858-8.569,68.213-22.924c7.733-7.733,11.82-16.777,11.822-26.147c0-13.62-8.46-26.175-23.819-35.357
	C398.263,14.872,378.298,10,356.843,10c-13.099,0-25.416,5.103-34.68,14.367c-5.573,5.573-9.703,12.361-12.071,19.802
	L102.128,34.165c-0.699-0.058-1.361-0.084-2.016-0.086c-6.676,0.002-12.95,2.6-17.67,7.32s-7.32,10.996-7.32,17.67
	c0,13.78,11.21,24.99,24.99,24.99C100.767,84.062,101.427,84.034,102.128,83.978L102.128,83.978z"/>
<path d="M356.843,118.144c-23.222,0-43.821-13.317-53.435-33.835L102.753,93.96c-0.932,0.07-1.804,0.096-2.671,0.101
	c-19.264,0-34.96-15.696-34.96-34.99c0-9.345,3.64-18.132,10.249-24.741c6.605-6.607,15.391-10.247,24.738-10.25
	c0.922,0.003,1.785,0.037,2.659,0.105l200.672,9.652c2.897-6.113,6.849-11.738,11.651-16.541C326.245,6.142,341.072,0,356.843,0
	c23.233,0,45.02,5.374,61.346,15.13c18.501,11.06,28.689,26.666,28.689,43.941c-0.003,12.084-5.103,23.57-14.751,33.218
	C415.938,108.479,387.794,118.144,356.843,118.144z M310.091,63.975c4.34,0,8.209,2.81,9.53,6.982
	c5.147,16.261,20.104,27.186,37.222,27.186c25.764,0,48.621-7.475,61.142-19.996c5.816-5.817,8.893-12.414,8.893-19.078
	c0-9.958-6.73-19.467-18.95-26.772C394.658,24.368,376.516,20,356.843,20c-10.428,0-20.233,4.062-27.609,11.438
	c-4.411,4.411-7.735,9.862-9.613,15.763c-1.375,4.319-5.492,7.17-10.01,6.956L101.647,44.154c-0.116-0.005-0.233-0.013-0.349-0.023
	c-0.402-0.033-0.8-0.05-1.216-0.051c-3.973,0.001-7.739,1.561-10.569,4.392c-2.832,2.832-4.392,6.596-4.392,10.599
	c0,8.266,6.724,14.99,14.99,14.99c0.404,0.002,0.782-0.016,1.224-0.051c0.104-0.008,0.208-0.015,0.312-0.02l207.959-10.003
	C309.769,63.979,309.93,63.975,310.091,63.975z"/>
<path style="fill:#FD7555;" d="M145.735,107.584v98.105c12.778-0.218,24.761-5.285,33.822-14.346
	c5.574-5.574,9.703-12.361,12.071-19.802l207.963,10.003c0.698,0.058,1.361,0.084,2.016,0.086c6.676-0.002,12.95-2.6,17.67-7.32
	s7.32-10.996,7.32-17.67c0-13.78-11.21-24.99-24.99-24.99c-0.655-0.002-1.315,0.026-2.016,0.082l-207.959,10.003
	C185.296,121.711,166.974,107.947,145.735,107.584z"/>
<path d="M401.639,121.65c-0.859,0.007-1.738,0.03-2.672,0.101l-200.661,9.652c-9.463-20.131-29.649-33.429-52.4-33.817
	c-0.029-0.001-0.058,0.003-0.087,0.003c-0.028,0-0.056-0.004-0.084-0.004H85.402c-5.523,0-10,4.477-10,10s4.477,10,10,10h50.333
	v29.053H85.402c-5.523,0-10,4.477-10,10s4.477,10,10,10h50.333v29.052H85.402c-5.523,0-10,4.477-10,10s4.477,10,10,10h60.333l0,0
	c0.057,0,0.114,0,0.171-0.002c15.384-0.263,29.846-6.397,40.723-17.273c4.802-4.803,8.753-10.427,11.65-16.542l200.674,9.653
	c0.884,0.068,1.748,0.103,2.656,0.105c9.347-0.003,18.132-3.643,24.737-10.249c6.609-6.608,10.25-15.395,10.25-24.741
	C436.598,137.347,420.901,121.65,401.639,121.65z M412.206,167.239c-3.122,3.121-7.373,4.706-11.793,4.34
	c-0.113-0.009-0.228-0.017-0.341-0.022l-207.963-10.003c-4.525-0.221-8.635,2.636-10.009,6.956
	c-1.879,5.902-5.203,11.354-9.613,15.763c-4.727,4.726-10.477,8.098-16.752,9.902V119.1c12.337,3.545,22.366,13.019,26.363,25.653
	c1.369,4.327,5.489,7.192,10.015,6.971l207.959-10.003c0.104-0.005,0.207-0.011,0.311-0.02c0.444-0.035,0.841-0.05,1.226-0.051
	c8.265,0,14.989,6.725,14.989,14.99C416.598,160.644,415.038,164.407,412.206,167.239z"/>
<g>
	<path style="fill:#98E1E2;" d="M468,373.718H44l21.421-91.603c5.025-21.488,24.187-36.686,46.254-36.686h288.649
		c22.068,0,41.229,15.198,46.254,36.686L468,373.718z"/>
	<path style="fill:#98E1E2;" d="M44.006,373.718h424l-21.427,91.596C441.554,486.802,422.392,502,400.325,502h-288.65
		c-22.068,0-41.229-15.198-46.254-36.686L44.006,373.718z"/>
</g>
<path style="fill:#296B94;" d="M289.184,421.826h-66.369c-15.086,0-27.315-12.23-27.315-27.315l0.001-20.793h121l-0.001,20.793
	C316.5,409.597,304.27,421.826,289.184,421.826z"/>
<path d="M400.97,347.62c-0.66,0-1.31-0.06-1.96-0.19c-0.64-0.13-1.26-0.32-1.87-0.57c-0.6-0.25-1.18-0.56-1.72-0.92
	c-0.55-0.36-1.06-0.78-1.52-1.24s-0.88-0.98-1.25-1.52c-0.359-0.55-0.67-1.13-0.92-1.73s-0.439-1.23-0.569-1.87
	c-0.13-0.65-0.19-1.3-0.19-1.96c0-0.65,0.061-1.3,0.19-1.95c0.13-0.64,0.319-1.27,0.569-1.87s0.561-1.18,0.92-1.73
	c0.37-0.54,0.79-1.06,1.25-1.52s0.971-0.88,1.52-1.24c0.54-0.36,1.12-0.671,1.72-0.921c0.61-0.25,1.23-0.44,1.87-0.57
	c1.29-0.26,2.62-0.26,3.91,0c0.64,0.13,1.27,0.32,1.87,0.57s1.189,0.56,1.729,0.921c0.54,0.36,1.061,0.78,1.521,1.24
	s0.88,0.98,1.24,1.52c0.359,0.55,0.67,1.13,0.92,1.73s0.439,1.23,0.569,1.87c0.13,0.65,0.2,1.3,0.2,1.95c0,0.66-0.07,1.31-0.2,1.96
	c-0.13,0.64-0.319,1.27-0.569,1.87s-0.561,1.18-0.92,1.73c-0.36,0.54-0.78,1.06-1.24,1.52s-0.98,0.88-1.521,1.24
	c-0.54,0.36-1.13,0.67-1.729,0.92c-0.6,0.25-1.23,0.44-1.87,0.57C402.28,347.56,401.62,347.62,400.97,347.62z"/>
<path d="M483,363.719h-7.068l-19.615-83.881c-6.115-26.147-29.14-44.408-55.992-44.408h-288.65
	c-26.852,0-49.877,18.261-55.992,44.409l-19.615,83.88H29c-5.523,0-10,4.477-10,10s4.477,10,10,10h7.075l19.609,83.873
	C61.799,493.739,84.823,512,111.675,512h288.649c26.853,0,49.877-18.261,55.992-44.408l19.62-83.874H483c5.522,0,10-4.477,10-10
	C493,368.196,488.522,363.719,483,363.719z M60.372,347.625h303.086c5.522,0,10-4.477,10-10s-4.478-10-10-10H65.048l10.11-43.232
	c3.988-17.053,19.004-28.963,36.517-28.963h288.649c17.513,0,32.529,11.91,36.518,28.962l18.55,79.326l0,0H56.608l0,0
	L60.372,347.625z M205.501,383.719h101l-0.001,10.792c0,9.548-7.768,17.315-17.315,17.315h-66.369
	c-9.548,0-17.315-7.768-17.315-17.315L205.501,383.719z M436.842,463.037C432.853,480.09,417.837,492,400.324,492H111.675
	c-17.513,0-32.529-11.91-36.517-28.962l-18.544-79.319h128.887l-0.001,10.792c0,20.576,16.74,37.315,37.315,37.315h66.369
	c20.576,0,37.315-16.74,37.315-37.315v-10.793h128.896L436.842,463.037z"/>
<g>
</g>
<g>
</g>
<g>
</g>
<g>
</g>
<g>
</g>
<g>
</g>
<g>
</g>
<g>
</g>
<g>
</g>
<g>
</g>
<g>
</g>
<g>
</g>
<g>
</g>
<g>
</g>
<g>
</g>
</svg>
