<svg viewBox="0 0 512 512.00023" xmlns="http://www.w3.org/2000/svg"><path d="m391 140.003906c0 74.554688-60.441406 139.996094-135 139.996094s-135-65.441406-135-139.996094c0-74.558594 55-108 135-71 90-37 135-3.558594 135 71zm0 0" fill="#f03c32"/><path d="m403.148438 502h-294.296876c-19.101562 0-35.546874-13.484375-39.292968-32.210938l-33.558594-167.789062h440l-33.558594 167.789062c-3.746094 18.726563-20.191406 32.210938-39.292968 32.210938zm0 0" fill="#4696e6"/><path d="m10 262h492v40h-492zm0 0" fill="#d9d9e2"/><path d="m136 342h240v120h-240zm0 0" fill="#fad79b"/><path d="m502 252h-150.558594c2.480469-2.285156 4.90625-4.667969 7.265625-7.148438 26.878907-28.253906 42.292969-66.46875 42.292969-104.847656 0-39.382812-12.125-68.324218-35.070312-83.699218-23.648438-15.847657-56.550782-16.664063-97.957032-2.496094 3.53125-10.238282 12.691406-24.160156 36.125-34.683594 5.039063-2.261719 7.289063-8.179688 5.027344-13.21875-2.265625-5.039062-8.179688-7.289062-13.21875-5.027344-34.730469 15.59375-45.566406 38.351563-48.773438 53.53125-38.265624-14.644531-72.578124-14.042968-97.667968 2-24.804688 15.855469-38.464844 45.542969-38.464844 83.59375 0 38.378906 15.417969 76.59375 42.296875 104.851563 2.355469 2.480469 4.78125 4.859375 7.265625 7.148437h-150.5625c-5.523438 0-10 4.476563-10 10v40c0 5.519532 4.476562 10 10 10h17.800781l31.949219 159.746094c4.667969 23.320312 25.316406 40.25 49.101562 40.25h294.296876c23.785156 0 44.4375-16.929688 49.101562-40.25l31.949219-159.75h17.800781c5.523438 0 10-4.476562 10-10v-40c0-5.523438-4.476562-10-10-10zm-371-111.996094c0-30.988281 10.382812-54.691406 29.234375-66.742187 9.835937-6.289063 21.785156-9.417969 35.3125-9.417969 16.6875 0 35.773437 4.761719 56.253906 14.234375 2.527344 1.171875 5.425781 1.230469 8 .175781 41.742188-17.164062 74.59375-19.007812 94.996094-5.332031 21.65625 14.507813 26.203125 44.488281 26.203125 67.082031 0 47.011719-25.480469 89.152344-62.5625 111.996094h-124.847656c-37.089844-22.84375-62.589844-64.976562-62.589844-111.996094zm301.636719 327.824219c-2.800781 14.003906-15.203125 24.171875-29.488281 24.171875h-294.296876c-14.285156 0-26.6875-10.167969-29.488281-24.171875l-31.164062-155.828125h415.601562zm59.363281-175.828125h-472v-20h472zm0 0"/><path d="m136 472h240c5.523438 0 10-4.476562 10-10v-120c0-5.523438-4.476562-10-10-10h-240c-5.523438 0-10 4.476562-10 10v120c0 5.523438 4.476562 10 10 10zm10-120h220v100h-220zm0 0"/><path d="m301 372h-90c-5.523438 0-10 4.476562-10 10s4.476562 10 10 10h90c5.523438 0 10-4.476562 10-10s-4.476562-10-10-10zm0 0"/><path d="m296 412h-120c-5.511719 0-10 4.492188-10 10 0 5.511719 4.488281 10 10 10h120c5.511719 0 10-4.488281 10-10s-4.488281-10-10-10zm0 0"/><path d="m336 412c-5.511719 0-10 4.492188-10 10 0 5.511719 4.488281 10 10 10s10-4.488281 10-10-4.488281-10-10-10zm0 0"/></svg>