<svg viewBox="0 0 512 512.00048" xmlns="http://www.w3.org/2000/svg"><path d="m71.195312 94.285156c8.210938-8.210937 23.078126-8.546875 32.101563-15.320312 9.25-6.941406 13.757813-21.097656 23.699219-26.53125 10.113281-5.527344 24.472656-1.65625 35.125-5.621094 10.769531-4.007812 19.105468-16.3125 30.242187-18.722656 11.207031-2.429688 23.890625 5.332031 35.285157 4.523437 11.414062-.8125 22.875-10.289062 34.285156-9.476562 9.859375.703125 18.679687 9.023437 28.136718 12.824219 2.421876.976562 3.769532 3.582031 3.265626 6.144531l-39.523438 200.539062c-1.542969 7.832031 5.351562 14.726563 13.183594 13.183594l204.742187-40.351563c1.339844-.261718 2.597657.628907 2.882813 1.960938.003906.011719.003906.019531.003906.027344 2.429688 11.203125 13.425781 21.207031 14.238281 32.597656.808594 11.414062-8.664062 22.875-9.476562 34.289062-.808594 11.390626 6.949219 24.078126 4.523437 35.285157-2.410156 11.136719-14.714844 19.472656-18.722656 30.242187-3.964844 10.652344-.09375 25.011719-5.621094 35.125-5.433594 9.941406-19.589844 14.449219-26.53125 23.699219-6.773437 9.023437-7.109375 23.890625-15.320312 32.101563-8.210938 8.210937-23.078125 8.546874-32.101563 15.320312-9.25 6.941406-13.757812 21.097656-23.699219 26.53125-10.113281 5.527344-24.472656 1.652344-35.125 5.617188-10.769531 4.011718-19.105468 16.316406-30.242187 18.726562-11.207031 2.425781-23.894531-5.335938-35.285156-4.523438-11.414063.8125-22.875 10.285157-34.285157 9.476563-11.394531-.8125-21.398437-11.808594-32.601562-14.234375-11.136719-2.414062-24.800781 3.46875-35.570312-.539062-10.648438-3.964844-17.140626-17.332032-27.253907-22.859376-9.941406-5.433593-24.707031-3.65625-33.957031-10.597656-9.023438-6.773437-11.472656-21.421875-19.683594-29.632812-8.207031-8.210938-22.859375-10.660156-29.632812-19.683594-6.941406-9.25-5.164063-24.015625-10.597656-33.957031-5.527344-10.113281-18.890626-16.601563-22.855469-27.253907-4.011719-10.769531 1.871093-24.429687-.542969-35.570312-2.421875-11.203125-13.421875-21.207031-14.2304688-32.597656-.8125002-11.414063 8.6601568-22.875 9.4726568-34.289063.8125-11.390625-6.949219-24.078125-4.523438-35.285156 2.410156-11.136719 14.714844-19.472656 18.722656-30.242187 3.964844-10.652344.09375-25.011719 5.621094-35.125 5.433594-9.941407 19.589844-14.449219 26.53125-23.699219 6.773438-9.023438 7.109375-23.890625 15.320312-32.101563zm0 0" fill="#ffd782"/><path d="m179.53125 497.175781c-10.648438-3.964843-17.140625-17.328125-27.253906-22.855469-9.941406-5.433593-24.707032-3.65625-33.957032-10.597656-9.023437-6.773437-11.472656-21.425781-19.683593-29.632812-8.210938-8.210938-22.859375-10.660156-29.632813-19.683594-6.945312-9.25-5.164062-24.015625-10.597656-33.957031-5.527344-10.113281-18.894531-16.605469-22.859375-27.253907-4.007813-10.769531 1.875-24.433593-.539063-35.570312-2.425781-11.203125-13.421874-21.207031-14.234374-32.597656-.8125-11.414063 8.664062-22.875 9.476562-34.289063.808594-11.390625-6.953125-24.078125-4.527344-35.28125 2.414063-11.140625 14.71875-19.476562 18.726563-30.246093 3.964843-10.652344.09375-25.011719 5.621093-35.125 5.433594-9.9375 19.585938-14.449219 26.53125-23.699219 6.773438-9.023438 7.109376-23.890625 15.320313-32.101563 8.210937-8.210937 23.074219-8.546875 32.101563-15.320312 9.25-6.941406 13.757812-21.097656 23.699218-26.53125 10.109375-5.527344 24.472656-1.65625 35.125-5.621094 9.378906-3.492188 16.910156-13.269531 26.058594-17.328125-5.648438-1.417969-11.257812-2.539063-16.542969-1.394531-11.136719 2.410156-19.472656 14.714844-30.242187 18.722656-10.648438 3.964844-25.011719.09375-35.125 5.621094-9.9375 5.433594-14.445313 19.589844-23.695313 26.53125-9.027343 6.773437-23.894531 7.109375-32.105469 15.320312-8.210937 8.210938-8.546874 23.078125-15.320312 32.101563-6.941406 9.25-21.09375 13.757812-26.527344 23.699219-5.527344 10.113281-1.65625 24.472656-5.621094 35.125-4.011718 10.769531-16.316406 19.105468-18.726562 30.242187-2.425781 11.207031 5.335938 23.894531 4.523438 35.285156-.8125 11.414063-10.285157 22.875-9.4726568 34.289063.8085938 11.390625 11.8085938 21.394531 14.2343748 32.597656 2.410156 11.136719-3.472656 24.800781.539063 35.566406 3.964843 10.652344 17.328125 17.144532 22.855469 27.257813 5.433593 9.9375 3.65625 24.703125 10.597656 33.953125 6.773437 9.027344 21.425781 11.472656 29.636718 19.683594 8.210938 8.210937 10.65625 22.863281 19.683594 29.636718 9.25 6.941406 24.015625 5.164063 33.953125 10.59375 10.113281 5.53125 16.605469 18.894532 27.257813 22.859375 6.648437 2.476563 14.40625 1.179688 21.988281.394531-.421875-.125-.851563-.238281-1.265625-.394531zm0 0" fill="#fdbd40"/><path d="m253.8125 242.644531 32.519531-165.007812-.800781-.203125c-62.988281-13.808594-131.472656 3.777344-180.449219 52.753906-76.417969 76.417969-76.417969 200.3125 0 276.730469 76.414063 76.417969 200.3125 76.417969 276.730469 0 49.675781-49.675781 67.042969-119.410157 52.136719-183.128907l-.148438-.832031-166.804687 32.871094c-7.832032 1.542969-14.726563-5.351563-13.183594-13.183594zm0 0" fill="#d3843d"/><path d="m330.183594 10.355469c1.453125-7.382813 6.703125-8.667969 9.027344-8.871094.347656-.003906.699218-.015625 1.054687-.03125.039063.003906.066406.003906.066406.003906l.003907-.003906c9.164062-.347656 19.070312-3.078125 27.289062-.019531 10.570312 3.9375 17.015625 17.207031 27.054688 22.695312 9.871093 5.390625 24.527343 3.628906 33.710937 10.519532 8.960937 6.722656 11.390625 21.265624 19.542969 29.417968 8.148437 8.152344 22.691406 10.582032 29.417968 19.542969 6.894532 9.183594 5.128907 23.839844 10.519532 33.710937 5.488281 10.039063 18.757812 16.480469 22.695312 27.054688 2.960938 7.957031.492188 17.5.019532 26.417969-.199219 3.816406-2.898438 7.03125-6.644532 7.769531l-198.964844 39.210938c-7.777343 1.53125-14.621093-5.3125-13.089843-13.085938zm0 0" fill="#ffd782"/><path d="m312.609375 204.683594 38.296875-194.328125c1.457031-7.382813 6.703125-8.667969 9.027344-8.871094.351562-.003906.703125-.015625 1.054687-.03125.042969.003906.070313.003906.070313.003906v-.003906c1.765625-.066406 3.5625-.222656 5.367187-.410156-7.96875-2.398438-17.363281.078125-26.089843.410156v.003906s-.027344 0-.070313-.003906c-.351563.015625-.703125.027344-1.054687.03125-2.324219.203125-7.570313 1.488281-9.027344 8.871094l-38.296875 194.328125c-1.53125 7.777344 5.3125 14.621094 13.085937 13.089844l11.5625-2.277344c-3.039062-2.46875-4.777344-6.492188-3.925781-10.8125zm0 0" fill="#fdbd40"/><path d="m304.972656 217.773438 170.644532-33.628907c-8.25-34.726562-25.898438-67.675781-52.988282-94.765625-27.789062-27.789062-61.738281-45.660156-97.453125-53.625l-33.292969 168.929688c-1.53125 7.777344 5.316407 14.621094 13.089844 13.089844zm0 0" fill="#d3843d"/><g fill="#c65c38"><path d="m312.609375 204.683594 32.21875-163.472656c-6.472656-2.160157-13.03125-3.980469-19.648437-5.457032l-33.292969 168.929688c-1.535157 7.777344 5.3125 14.621094 13.085937 13.089844l11.5625-2.277344c-3.039062-2.46875-4.777344-6.492188-3.925781-10.8125zm0 0"/><path d="m125.804688 406.917969c-76.417969-76.417969-76.417969-200.3125 0-276.730469 35.5625-35.5625 81.410156-54.558594 127.96875-57.019531-53.460938-2.808594-107.855469 16.183593-148.691407 57.019531-76.417969 76.417969-76.417969 200.3125 0 276.730469 40.84375 40.84375 95.253907 59.847656 148.726563 57.03125-46.570313-2.453125-92.429688-21.457031-128.003906-57.03125zm0 0"/></g></svg>