<?xml version="1.0" encoding="iso-8859-1"?>
<!-- Generator: Adobe Illustrator 19.0.0, SVG Export Plug-In . SVG Version: 6.00 Build 0)  -->
<svg version="1.1" id="Capa_1" xmlns="http://www.w3.org/2000/svg" xmlns:xlink="http://www.w3.org/1999/xlink" x="0px" y="0px"
	 viewBox="0 0 512 512" style="enable-background:new 0 0 512 512;" xml:space="preserve">
<path style="fill:#D83D49;" d="M483.02,113.528l-26.621-85.343c-2.19-7.02-10.831-9.512-16.412-4.732l-9.709,8.316l23.027,73.818
	c2.063,6.614-2.816,12.902-9.126,13.277l26.248,7.569C478.256,128.69,485.45,121.319,483.02,113.528z"/>
<g>
	<path style="fill:#BD8F6D;" d="M307.333,511.492L307.333,511.492c-6.818-1.966-10.754-9.084-8.795-15.904L416.76,84.171
		l24.707,7.124L323.252,502.69C321.29,509.518,314.16,513.461,307.333,511.492z"/>
	<path style="fill:#BD8F6D;" d="M204.667,511.492L204.667,511.492c6.818-1.966,10.754-9.084,8.795-15.904L95.24,84.171
		l-24.707,7.124L188.748,502.69C190.71,509.518,197.84,513.461,204.667,511.492z"/>
	<path style="fill:#BD8F6D;" d="M255.24,512h-0.014c-7.103,0-12.861-5.758-12.861-12.861V71.031H268.1V499.14
		C268.101,506.242,262.343,512,255.24,512z"/>
</g>
<path style="fill:#FEBE40;" d="M466.114,190.628c-9.591,33.376-44.356,52.649-77.65,43.049s-52.51-44.439-42.919-77.815
	s44.356-52.649,77.65-43.049S475.704,157.253,466.114,190.628z"/>
<path style="fill:#FC9642;" d="M423.194,112.813c-11.33-3.267-22.829-3.183-33.45-0.345c0.44,0.117,0.881,0.218,1.321,0.345
	c33.294,9.6,52.51,44.439,42.919,77.815c-6.327,22.018-23.611,37.891-44.2,43.394c32.888,8.723,66.866-10.459,76.329-43.394
	C475.704,157.253,456.488,122.414,423.194,112.813z"/>
<g>
	<path style="fill:#DBA67F;" d="M391.048,345.697l-64.26-18.529c-10.589-3.053-16.702-14.108-13.658-24.699l18.5-64.38
		c3.047-10.605,14.12-16.728,24.722-13.671l64.26,18.529c10.589,3.053,16.702,14.108,13.658,24.7l-18.5,64.38
		C412.723,342.632,401.65,348.754,391.048,345.697z"/>
	<path style="fill:#DBA67F;" d="M392.104,345.983l-64.26-18.529c-10.589-3.053-16.702-14.108-13.658-24.7l18.5-64.38
		c3.047-10.605,14.12-16.728,24.722-13.671l64.26,18.529c10.589,3.053,16.702,14.108,13.658,24.7l-18.5,64.38
		C413.779,342.918,402.706,349.04,392.104,345.983z"/>
</g>
<path style="fill:#BD8F6D;" d="M421.666,243.232l-24.657-7.11c7.334,4.672,11.058,13.764,8.533,22.549l-18.873,65.676
	c-2.512,8.74-10.423,14.454-19.062,14.572l24.51,7.067c10.596,3.056,21.66-3.067,24.708-13.673l18.496-64.368
	C438.367,257.348,432.254,246.286,421.666,243.232z"/>
<path style="fill:#C8DA52;" d="M393.025,374.14l-82.996-23.932c-7.096-2.046-11.193-9.454-9.153-16.552l0.005-0.019
	c2.042-7.107,9.462-11.21,16.568-9.161l82.996,23.932c7.096,2.046,11.193,9.454,9.153,16.552l-0.005,0.019
	C407.551,372.085,400.131,376.189,393.025,374.14z"/>
<g>
	<path style="fill:#90C23E;" d="M400.444,348.407l-25.804-7.44c4.639,3.29,6.936,9.256,5.276,15.033l-0.218,0.76
		c-1.665,5.793-6.801,9.631-12.494,9.934l25.831,7.448c7.101,2.048,14.516-2.056,16.558-9.163l0.003-0.011
		C411.637,357.866,407.54,350.453,400.444,348.407z"/>
	<path style="fill:#90C23E;" d="M385.629,399.879l-82.996-23.932c-7.096-2.046-11.193-9.454-9.153-16.552l0.005-0.019
		c2.042-7.107,9.462-11.21,16.568-9.161l82.996,23.932c7.096,2.046,11.193,9.454,9.153,16.552l-0.005,0.019
		C400.154,397.825,392.734,401.928,385.629,399.879z"/>
</g>
<path style="fill:#7CA836;" d="M393.048,374.146l-26.356-7.6c4.72,3.263,7.072,9.28,5.398,15.102l-0.204,0.709
	c-1.675,5.827-6.868,9.676-12.604,9.925l26.355,7.599c7.101,2.048,14.516-2.056,16.558-9.163l0.003-0.011
	C404.24,383.606,400.144,376.192,393.048,374.146z"/>
<path style="fill:#FEBE40;" d="M45.886,190.628c9.591,33.376,44.356,52.649,77.65,43.049s52.51-44.439,42.919-77.815
	s-44.356-52.649-77.65-43.049S36.296,157.253,45.886,190.628z"/>
<path style="fill:#FC9642;" d="M166.456,155.862c-9.394-32.69-42.938-51.833-75.597-43.585
	c20.927,5.309,38.568,21.293,44.974,43.585c9.591,33.376-9.625,68.215-42.919,77.815c-0.684,0.197-1.368,0.363-2.053,0.536
	c10.405,2.64,21.619,2.652,32.676-0.536C156.83,224.077,176.046,189.238,166.456,155.862z"/>
<path style="fill:#DBA67F;" d="M120.952,345.697l64.26-18.529c10.589-3.053,16.702-14.108,13.658-24.699l-18.5-64.38
	c-3.047-10.605-14.12-16.728-24.722-13.671l-64.26,18.529C80.8,246,74.687,257.055,77.73,267.647l18.5,64.38
	C99.277,342.632,110.35,348.754,120.952,345.697z"/>
<path style="fill:#BD8F6D;" d="M198.867,302.455l-18.496-64.368c-3.048-10.606-14.112-16.729-24.708-13.673l-24.077,6.942
	c8.585,0.151,16.434,5.845,18.931,14.534l18.768,65.311c2.734,9.516-1.885,19.387-10.483,23.582l26.41-7.615
	C195.799,324.115,201.912,313.053,198.867,302.455z"/>
<path style="fill:#C8DA52;" d="M118.975,374.14l82.996-23.932c7.096-2.046,11.193-9.454,9.153-16.552l-0.005-0.019
	c-2.042-7.107-9.462-11.21-16.568-9.161l-82.996,23.932c-7.096,2.046-11.193,9.454-9.153,16.552l0.005,0.019
	C104.449,372.085,111.869,376.189,118.975,374.14z"/>
<path style="fill:#90C23E;" d="M126.371,399.879l82.996-23.932c7.096-2.046,11.193-9.454,9.153-16.552l-0.005-0.019
	c-2.042-7.107-9.462-11.21-16.568-9.161l-82.996,23.932c-7.096,2.046-11.193,9.454-9.153,16.552l0.005,0.019
	C111.846,397.825,119.266,401.928,126.371,399.879z"/>
<ellipse style="fill:#FEBE40;" cx="256" cy="158.02" rx="62.794" ry="62.886"/>
<path style="fill:#FC9642;" d="M256,95.131c-5.468,0-10.771,0.703-15.828,2.018c27.017,7.027,46.966,31.613,46.966,60.868
	s-19.949,53.841-46.966,60.868c5.057,1.315,10.36,2.018,15.828,2.018c34.68,0,62.794-28.155,62.794-62.886S290.68,95.131,256,95.131
	z"/>
<path style="fill:#DBA67F;" d="M289.475,327.836h-66.949c-11.033,0-19.977-8.944-19.977-19.977v-66.98
	c0-11.033,8.944-19.977,19.977-19.977h66.949c11.033,0,19.977,8.944,19.977,19.977v66.98
	C309.451,318.892,300.507,327.836,289.475,327.836z"/>
<path style="fill:#BD8F6D;" d="M289.482,220.903H258.6c11.029,0,19.969,8.947,19.969,19.984v66.965
	c0,11.037-8.941,19.984-19.969,19.984h30.882c11.029,0,19.969-8.947,19.969-19.984v-66.965
	C309.451,229.85,300.511,220.903,289.482,220.903z"/>
<g>
	<path style="fill:#F04348;" d="M456.398,28.185l26.621,85.343c2.43,7.791-4.764,15.162-12.594,12.904l-94.463-27.238
		c-7.83-2.258-10.011-12.332-3.818-17.637l67.841-58.105C445.567,18.673,454.208,21.165,456.398,28.185z"/>
	<path style="fill:#F04348;" d="M55.602,28.185L28.98,113.528c-2.43,7.791,4.764,15.162,12.594,12.904l94.463-27.238
		c7.83-2.258,10.011-12.332,3.818-17.637L72.014,23.453C66.433,18.673,57.792,21.165,55.602,28.185z"/>
</g>
<path style="fill:#D83D49;" d="M139.855,81.558L72.014,23.453c-5.581-4.78-14.222-2.288-16.412,4.732L51.823,40.3l58.695,50.271
	c5.314,4.552,4.448,12.602-0.848,16.226l26.368-7.603C143.867,96.937,146.048,86.862,139.855,81.558z"/>
<path style="fill:#F04348;" d="M264.548,4.605l49.198,74.636c4.491,6.813-0.392,15.89-8.548,15.89h-98.395
	c-8.156,0-13.039-9.077-8.548-15.89l49.198-74.636C251.499-1.535,260.501-1.535,264.548,4.605z"/>
<path style="fill:#D83D49;" d="M313.745,79.241L264.548,4.605c-4.047-6.14-13.048-6.14-17.096,0l-6.893,10.458l42.304,64.178
	c4.491,6.813-0.392,15.89-8.548,15.89h30.882C313.354,95.131,318.237,86.054,313.745,79.241z"/>
<path style="fill:#90C23E;" d="M299.23,354.62h-86.46c-7.394,0-13.387-5.994-13.387-13.387v-0.01
	c0-7.394,5.994-13.387,13.387-13.387h86.461c7.394,0,13.387,5.994,13.387,13.387v0.01C312.618,348.627,306.624,354.62,299.23,354.62
	z"/>
<g>
	<path style="fill:#7CA836;" d="M299.235,327.836h-30.882c7.391,0,13.382,5.996,13.382,13.392s-5.991,13.392-13.382,13.392h30.882
		c7.391,0,13.382-5.996,13.382-13.392S306.626,327.836,299.235,327.836z"/>
	<path style="fill:#7CA836;" d="M299.23,381.405h-86.46c-7.394,0-13.387-5.994-13.387-13.387v-0.01
		c0-7.394,5.994-13.387,13.387-13.387h86.461c7.394,0,13.387,5.994,13.387,13.387v0.01
		C312.618,375.411,306.624,381.405,299.23,381.405z"/>
</g>
<path style="fill:#6D9430;" d="M299.235,354.62h-30.882c7.391,0,13.382,5.996,13.382,13.392s-5.991,13.392-13.382,13.392h30.882
	c7.391,0,13.382-5.996,13.382-13.392C312.618,360.616,306.626,354.62,299.235,354.62z"/>
<g>
</g>
<g>
</g>
<g>
</g>
<g>
</g>
<g>
</g>
<g>
</g>
<g>
</g>
<g>
</g>
<g>
</g>
<g>
</g>
<g>
</g>
<g>
</g>
<g>
</g>
<g>
</g>
<g>
</g>
</svg>
